<svg width="40" height="30" viewBox="0 0 40 30" fill="none" xmlns="http://www.w3.org/2000/svg">
<rect width="40" height="30" rx="6" fill="#656565"/>
<path fill-rule="evenodd" clip-rule="evenodd" d="M11.4595 6.7819C12.3943 5.68767 13.6621 5.07297 14.9839 5.07297C16.3057 5.07297 17.5734 5.68767 18.5082 6.7819L19.9688 8.49063L21.4294 6.7819C21.8893 6.22443 22.4393 5.77977 23.0475 5.47387C23.6557 5.16797 24.3098 5.00695 24.9717 5.00022C25.6336 4.99349 26.29 5.14117 26.9027 5.43465C27.5153 5.72813 28.0719 6.16152 28.5399 6.70956C29.008 7.25759 29.3781 7.90928 29.6288 8.6266C29.8794 9.34392 30.0056 10.1125 29.9998 10.8875C29.9941 11.6625 29.8565 12.4284 29.5953 13.1405C29.334 13.8526 28.9543 14.4967 28.4782 15.0351L19.9688 25L11.4595 15.0351C10.525 13.9406 10 12.4562 10 10.9085C10 9.36081 10.525 7.87647 11.4595 6.7819Z" fill="white"/>
</svg>
