<svg width="40" height="30" viewBox="0 0 40 30" fill="none" xmlns="http://www.w3.org/2000/svg">
<rect width="40" height="29.0323" rx="6" fill="#656565"/>
<ellipse cx="19.833" cy="9.97961" rx="5.5" ry="5.14099" fill="white"/>
<path d="M28 23.7098C28 22.8837 27.7931 22.0657 27.391 21.3026C26.989 20.5394 26.3997 19.8459 25.6569 19.2618C24.914 18.6777 24.0321 18.2144 23.0615 17.8983C22.0909 17.5821 21.0506 17.4194 20 17.4194C18.9494 17.4194 17.9091 17.5821 16.9385 17.8983C15.9679 18.2144 15.086 18.6777 14.3431 19.2618C13.6003 19.8459 13.011 20.5394 12.609 21.3026C12.2069 22.0657 12 22.8837 12 23.7098L20 23.7098H28Z" fill="white"/>
</svg>
