<svg width="40" height="30" viewBox="0 0 40 30" fill="none" xmlns="http://www.w3.org/2000/svg">
<rect width="40" height="30" rx="6" fill="#656565"/>
<path d="M27.5428 10.2858H12.4571C12.2429 10.2805 12.0304 10.3333 11.8354 10.44C11.6404 10.5467 11.4679 10.7047 11.3307 10.9022C11.1936 11.0998 11.0952 11.3319 11.0428 11.5812C10.9905 11.8306 10.9857 12.0909 11.0286 12.3429L12.6 21.7715C12.6668 22.1645 12.8463 22.517 13.1073 22.7676C13.3684 23.0182 13.6943 23.151 14.0286 23.1429H25.9714C26.3056 23.151 26.6316 23.0182 26.8926 22.7676C27.1537 22.517 27.3332 22.1645 27.4 21.7715L28.9714 12.3429C29.0143 12.0909 29.0094 11.8306 28.9571 11.5812C28.9048 11.3319 28.8064 11.0998 28.6692 10.9022C28.532 10.7047 28.3596 10.5467 28.1646 10.44C27.9696 10.3333 27.7571 10.2805 27.5428 10.2858Z" fill="white"/>
<path d="M22.8571 4.28564L25.7143 10.2856" stroke="white" stroke-linecap="round" stroke-linejoin="round"/>
<path d="M14.2857 10.2856L17.1428 4.28564" stroke="white" stroke-linecap="round" stroke-linejoin="round"/>
</svg>
