<svg width="184" height="47" viewBox="0 0 184 47" fill="none" xmlns="http://www.w3.org/2000/svg">
<path d="M79.0625 0.501839C79.0625 0.752789 78.7031 1.00374 78.2359 1.00374C76.7625 1.00374 74.1391 3.86457 73.6359 5.92236C73.4203 6.92616 73.0969 7.98015 72.9172 8.2311C72.4859 8.88357 72.4859 17.5664 72.9172 17.5664C73.0969 17.5664 73.3484 18.3695 73.4922 19.3733C73.7078 21.1801 75.4328 24.0911 76.2953 24.0911C76.9781 24.1413 73.6719 26.3497 71.8031 27.1025C70.8328 27.5041 70.0781 28.006 70.0781 28.1565C70.0781 28.3573 68.9641 28.9094 67.5625 29.4113C66.1969 29.9132 65.0469 30.4653 65.0469 30.666C65.0469 30.8668 63.7531 31.4189 62.1719 31.9208C60.5906 32.4227 59.2969 32.9748 59.2969 33.1253C59.2969 33.3261 57.7516 33.8782 55.8828 34.3801C54.0141 34.9322 52.4688 35.5345 52.4688 35.7352C52.4688 36.2371 50.4203 36.2873 50.2406 35.7352C50.025 35.0326 46.5031 31.1177 46.0719 31.1177C45.8203 31.1177 45.6406 30.917 45.6406 30.666C45.6406 30.3649 44.7063 29.7626 43.5922 29.2607C42.4422 28.7588 41.4719 28.2067 41.4 28.006C41.2203 27.5041 32.4516 27.5041 32.2719 27.9558C32.2359 28.2067 31.05 28.7588 29.6484 29.2607C28.2828 29.7626 27.0609 30.3147 26.9531 30.5656C26.8453 30.8166 25.9109 31.4189 24.9047 31.9208C23.8625 32.4227 23 33.025 23 33.2257C23 33.4767 22.8203 33.6272 22.6406 33.6272C22.425 33.6272 21.2031 34.3299 19.9094 35.1329C15.9563 37.7428 9.45156 37.6926 7.40313 35.0827C7.00781 34.5307 6.54063 34.1291 6.36094 34.1291C5.78594 34.1291 4.3125 31.6196 4.3125 30.6158C4.3125 29.2105 5.85781 27.1025 6.93594 27.1025C7.43906 27.1025 8.26563 26.9018 8.76875 26.6006C9.55938 26.1991 9.70313 25.7976 9.70313 24.1413C9.70313 21.7824 9.05625 21.0797 6.93594 21.0797C4.85156 21.0797 3.09063 21.933 1.94063 23.4889C0.467188 25.4463 0 27.2029 0 30.5656C0 32.9748 0.179688 33.8782 1.11406 35.7854C2.12031 37.8934 3.84531 40.1519 4.49219 40.1519C4.6 40.1519 4.92344 40.4531 5.21094 40.8044C5.4625 41.2059 6.72031 41.8082 7.97813 42.1595C9.23594 42.5109 10.3859 43.0128 10.5656 43.2135C11.0328 43.7656 16.9984 43.8158 17.4656 43.2637C17.6453 43.0128 18.6516 42.5611 19.7297 42.1595C20.8078 41.8082 22.425 41.0052 23.3234 40.3527C26.2703 38.3451 28.8938 36.6888 29.9359 36.3877C30.475 36.1869 30.9063 35.8356 30.9063 35.5846C30.9063 34.5808 32.3797 35.1831 32.775 36.3877C32.9906 37.0903 33.3141 37.6424 33.4938 37.6424C33.6375 37.6424 33.7813 37.9436 33.7813 38.2949C33.7813 39.1983 35.8297 42.0592 36.7641 42.4607C37.1953 42.6614 37.6625 43.063 37.8063 43.3641C38.1656 44.1169 47.4016 44.1169 48.5516 43.3139C49.0188 42.9626 51.0672 42.3603 53.1156 41.9588C55.1281 41.5071 57.0688 40.955 57.4281 40.6538C57.7516 40.4029 59.2609 39.8508 60.7344 39.3991C62.2078 38.9474 63.5734 38.3953 63.7891 38.1945C63.9688 37.9436 65.0469 37.4919 66.125 37.1405C67.2031 36.7892 68.425 36.2371 68.8563 35.8858C69.2516 35.5345 70.5813 34.8318 71.8031 34.3801C73.025 33.8782 74.0313 33.2759 74.0313 33.0751C74.0313 32.8242 74.2828 32.6234 74.6063 32.6234C75.1813 32.6234 81.2547 28.7588 81.5781 28.2067C81.6859 28.006 82.3328 27.4037 83.0156 26.9018C83.6984 26.3497 84.4172 25.647 84.5609 25.2455C84.7047 24.8942 85.0281 24.593 85.2797 24.593C85.8906 24.593 87.9031 21.2805 88.4422 19.4235C88.6938 18.52 89.0891 17.6668 89.2688 17.4661C89.5203 17.2653 89.6641 15.1573 89.6641 12.3969C89.6641 8.58243 89.5563 7.52844 89.0531 6.82578C88.6938 6.32388 88.4063 5.7216 88.4063 5.47065C88.4063 4.46685 86.1063 2.05773 84.5609 1.40526C83.7344 1.05393 83.0156 0.602219 83.0156 0.401459C83.0156 0.200699 82.1172 -5.72205e-05 81.0391 -5.72205e-05C79.9609 -5.72205e-05 79.0625 0.200699 79.0625 0.501839ZM83.6984 8.48205C85.0641 10.3391 85.3875 12.3969 84.6328 14.8562C84.0219 16.9642 81.4703 20.5778 79.8172 21.8326L78.7031 22.6356V20.5778C78.7031 19.4737 78.5594 18.5702 78.4156 18.5702C78.0203 18.5702 77.2656 14.0029 77.2656 11.7444C77.2656 7.47825 81.4344 5.37027 83.6984 8.48205ZM42.5859 36.0364L44.0234 37.3915L42.4063 37.5421C39.7828 37.793 37.375 36.2873 37.375 34.3299C37.375 33.5269 41.2563 34.7816 42.5859 36.0364Z" fill="#656565"/>
<path d="M98.6844 1.65628C97.7141 2.00761 96.8516 2.5597 96.7437 2.86084C96.6719 3.21217 96.3844 3.51331 96.1328 3.51331C95.4141 3.51331 93.5453 6.77566 93.2578 8.48212C93.1141 9.33535 92.8625 10.1384 92.6828 10.289C92.2875 10.6403 92.2516 17.0646 92.6469 17.0646C92.7906 17.0646 93.15 18.0684 93.4016 19.3734C93.6531 20.6281 94.1203 21.933 94.3719 22.3346C94.6594 22.6859 94.875 23.238 94.875 23.4889C94.875 23.7399 95.7734 25.2958 96.8516 26.952L98.7922 30.0136L95.8094 34.2296L92.7906 38.4455L90.85 36.0364C88.0469 32.4227 87.975 32.3726 86.6094 31.6197C85.9266 31.2182 85.2438 30.7163 85.1 30.4151C84.9922 30.1642 83.9141 29.8129 82.7641 29.7125C80.3922 29.4615 79.4219 30.2646 79.4219 32.2722C79.4219 34.1292 80.4281 35.2836 83.4828 36.8897C84.4172 37.3916 85.1719 37.9436 85.1719 38.1946C85.1719 38.3954 85.4594 38.6965 85.8187 38.8471C86.1422 38.9976 87.3641 40.3528 88.5141 41.8585C89.6641 43.3642 90.8859 44.7695 91.2812 44.9201C91.6766 45.1208 92 45.4721 92 45.7231C92 45.974 92.5031 46.1748 93.0781 46.1748C93.6891 46.1748 94.1562 45.9239 94.1562 45.6729C94.1562 45.3718 94.3719 45.171 94.6234 45.171C94.875 45.171 96.0609 43.5147 97.2109 41.5071C98.3969 39.5497 99.5109 37.7931 99.6906 37.6927C99.9062 37.5923 100.373 37.0402 100.805 36.4379C102.314 34.3802 103.284 33.9284 104.794 34.6813C105.584 35.0828 106.267 35.5345 106.375 35.6851C106.627 36.1368 109.861 37.6425 110.508 37.6425C110.795 37.6425 111.047 37.8433 111.047 38.0942C111.047 38.3452 112.233 38.8973 113.67 39.3992C115.072 39.8509 116.581 40.4531 116.977 40.6539C117.372 40.9049 119.169 41.5071 120.93 41.9087C122.727 42.3604 124.559 43.0128 125.027 43.314C126.141 44.117 140.084 44.1672 140.444 43.4144C140.587 43.1132 141.414 42.5611 142.277 42.1596C143.139 41.7581 144.037 41.206 144.253 40.9049C144.469 40.6539 145.223 39.9512 145.906 39.3992C146.589 38.8973 147.416 37.9938 147.739 37.4417C148.278 36.5383 148.458 36.4881 150.506 37.1406C151.728 37.4919 152.734 37.9436 152.734 38.1444C152.734 38.3452 154.064 38.8973 155.717 39.3992C157.334 39.9011 158.844 40.5033 159.023 40.7041C159.886 41.5573 166.247 42.26 171.602 42.0592C177.136 41.9087 177.423 41.8585 179.436 40.403C180.55 39.5999 182.023 38.1946 182.634 37.2912C183.605 35.8859 183.784 35.1832 183.928 32.6737C184 31.0676 183.892 28.9094 183.641 27.9056C183.209 25.9984 181.628 23.5893 180.873 23.5893C180.622 23.5893 180.406 23.3885 180.406 23.0874C180.406 22.3847 176.92 21.0798 174.98 21.0798C172.32 21.0798 171.422 21.8828 171.422 24.0912C171.422 26.5003 171.925 27.0524 174.62 27.4037C175.806 27.6045 176.812 27.9056 176.812 28.0562C176.812 28.257 177.387 28.7087 178.07 29.06C179.041 29.5619 179.328 29.9634 179.328 30.917C179.328 31.6197 179.077 32.5231 178.789 32.9246C178.106 33.8783 175.555 35.133 174.261 35.133C173.722 35.133 173.147 35.3338 173.039 35.6349C172.931 35.936 171.314 36.1368 169.409 36.1368C167.397 36.1368 166.031 35.936 166.031 35.6349C166.031 35.3338 165.492 35.133 164.881 35.133C163.228 35.133 157.262 33.6273 157.047 33.1756C156.939 32.9748 155.753 32.3726 154.352 31.8707C152.986 31.3688 151.764 30.7665 151.656 30.5657C151.189 29.7125 144.325 28.5079 140.983 28.7087C136.419 29.0098 134.55 30.1642 131.495 34.5809C130.525 35.9862 129.519 37.1406 129.267 37.1406C128.045 37.1406 122.691 35.9862 122.547 35.6851C122.439 35.4843 120.93 34.9322 119.133 34.4303C117.372 33.9284 115.755 33.3262 115.539 33.1254C115.359 32.9246 114.138 32.3224 112.844 31.8205C111.55 31.3186 110.436 30.7665 110.328 30.6159C110.22 30.4151 109.753 30.0638 109.25 29.8631C107.92 29.311 103.608 26.1992 102.781 25.2456C100.661 22.6357 99.1875 20.327 98.7563 19.022C98.5047 18.219 98.1812 17.5665 98.0375 17.5665C97.5703 17.5665 96.9953 13.5011 97.2109 11.9954C97.5344 10.038 99.4031 7.62889 100.913 7.22737C101.811 6.97642 102.386 7.22737 103.5 8.23117C104.291 8.93383 104.938 9.78706 104.938 10.0882C104.938 10.3893 105.189 10.9414 105.477 11.343C106.375 12.5977 106.159 16.2114 105.081 18.0182C104.362 19.2228 104.183 19.9756 104.291 21.6821C104.398 23.7901 104.398 23.8403 105.836 23.9908C107.094 24.1414 107.453 23.8904 108.316 22.5353C111.262 17.9178 110.903 9.43573 107.561 4.76806C106.663 3.46312 105.548 2.25856 105.117 2.00761C103.68 1.25476 100.445 1.054 98.6844 1.65628ZM141.773 34.6311C141.666 34.8821 141.306 35.133 141.019 35.133C140.731 35.133 140.516 35.3338 140.516 35.6349C140.516 36.2372 137.82 37.2912 136.994 36.99C136.455 36.8395 136.491 36.7391 137.102 36.3878C137.497 36.1368 137.928 35.7353 138.036 35.5345C138.144 35.2836 139.042 34.8821 140.012 34.6813C140.983 34.4303 141.809 34.2296 141.881 34.1794C141.953 34.1794 141.881 34.33 141.773 34.6311Z" fill="#656565"/>
</svg>
