<svg width="40" height="40" viewBox="0 0 40 40" fill="none" xmlns="http://www.w3.org/2000/svg">
<path fill-rule="evenodd" clip-rule="evenodd" d="M2.91905 3.56381C4.78869 1.37535 7.32411 0.14594 9.96778 0.14594C12.6114 0.14594 15.1469 1.37535 17.0165 3.56381L19.9377 6.98125L22.8589 3.56381C23.7786 2.44886 24.8787 1.55954 26.095 0.947741C27.3114 0.33594 28.6197 0.0139099 29.9435 0.000440756C31.2673 -0.0130284 32.5801 0.282334 33.8054 0.869292C35.0306 1.45625 36.1438 2.32305 37.0799 3.41911C38.016 4.51518 38.7563 5.81856 39.2576 7.2532C39.7589 8.68784 40.0111 10.225 39.9996 11.775C39.9881 13.325 39.7131 14.8568 39.1906 16.2811C38.6681 17.7053 37.9085 18.9934 36.9563 20.0703L19.9377 40L2.91905 20.0703C1.04998 17.8811 0 14.9125 0 11.817C0 8.72162 1.04998 5.75293 2.91905 3.56381Z" fill="#C62C2C"/>
</svg>
