<svg width="44" height="44" viewBox="0 0 44 44" fill="none" xmlns="http://www.w3.org/2000/svg">
<path fill-rule="evenodd" clip-rule="evenodd" d="M4.91905 5.56381C6.78869 3.37535 9.32411 2.14594 11.9678 2.14594C14.6114 2.14594 17.1469 3.37535 19.0165 5.56381L21.9377 8.98125L24.8589 5.56381C25.7786 4.44886 26.8787 3.55954 28.095 2.94774C29.3114 2.33594 30.6197 2.01391 31.9435 2.00044C33.2673 1.98697 34.5801 2.28233 35.8054 2.86929C37.0306 3.45625 38.1438 4.32305 39.0799 5.41911C40.016 6.51518 40.7563 7.81856 41.2576 9.2532C41.7589 10.6878 42.0111 12.225 41.9996 13.775C41.9881 15.325 41.7131 16.8568 41.1906 18.2811C40.6681 19.7053 39.9085 20.9934 38.9563 22.0703L21.9377 42L4.91905 22.0703C3.04998 19.8811 2 16.9125 2 13.817C2 10.7216 3.04998 7.75293 4.91905 5.56381Z" stroke="#656565" stroke-width="3" stroke-linejoin="round"/>
</svg>
