<svg width="991" height="500" viewBox="0 0 991 500" fill="none" xmlns="http://www.w3.org/2000/svg">
<path d="M205.5 176.5L147.5 113L765 115.5V176.5H205.5Z" fill="white" stroke="black"/>
<path d="M286 249L225.5 188.5H955.5V249H286Z" fill="white" stroke="black"/>
<path d="M132.5 101.5L69.0001 38L349 39.5V101.5H132.5Z" fill="white" stroke="black"/>
<path d="M311.602 209.336H313.754V230.852H311.602V209.336ZM315.234 219.832L323.512 209.336H326.066L317.789 219.598L326.418 230.852H323.742L315.234 219.832ZM336.395 214.57C341.102 214.57 344.699 218.176 344.699 222.914C344.699 227.652 341.074 231.227 336.395 231.227C331.719 231.227 328.09 227.652 328.09 222.914C328.09 218.176 331.691 214.57 336.395 214.57ZM336.395 216.52C332.824 216.52 330.238 219.309 330.238 222.914C330.238 226.52 332.824 229.281 336.395 229.281C339.969 229.281 342.555 226.52 342.555 222.914C342.555 219.309 339.969 216.52 336.395 216.52ZM347.73 230.852V214.949H351.043L356.355 227.941L361.672 214.949H364.98V230.852H362.836V217.332L357.285 230.852H355.426L349.879 217.332V230.852H347.73ZM368.633 214.949H381.82V230.852H379.672V216.895H370.785V230.852H368.633V214.949ZM392.918 214.949L399.684 230.852H397.363L391.785 217.68L386.211 230.852H383.887L390.684 214.949H392.918ZM417.566 223.668H403.363C403.621 226.836 406.062 229.281 409.402 229.281C411.898 229.281 413.961 227.855 414.949 225.676H417.188C415.91 229.105 413.004 231.227 409.402 231.227C404.727 231.227 401.125 227.68 401.125 222.914C401.125 218.988 404 214.57 409.402 214.57C415.414 214.57 417.594 219.57 417.566 223.668ZM403.363 221.723H415.238C414.633 218.496 412.164 216.52 409.402 216.52C406.352 216.52 403.887 218.699 403.363 221.723ZM422.773 230.852H420.625V214.949H422.773V230.852ZM430.41 230.852L424.023 222.797L430.238 214.949H432.766L426.664 222.621L433.172 230.852H430.41ZM448.363 226.199H450.746C449.668 228.555 447.375 231.227 443.02 231.227C437.586 231.227 434.539 227.043 434.539 222.883C434.539 219.074 437.473 214.57 443.02 214.57C446.707 214.57 449.523 216.633 450.773 219.773H448.363C446.766 216.633 443.742 216.52 443.02 216.52C439.328 216.52 436.688 219.336 436.688 222.855C436.688 226.488 439.563 229.281 443.02 229.281C445.195 229.281 447.23 228.203 448.363 226.199ZM453.953 214.949H456.102V221.723H464.988V214.949H467.141V230.852H464.988V223.668H456.102V230.852H453.953V214.949ZM470.801 214.949H472.949V221.023H477.219C481.52 221.023 482.621 224.105 482.621 225.938C482.621 227.77 481.52 230.852 477.219 230.852H470.801V214.949ZM472.949 222.973V228.902H477.191C479.453 228.902 480.473 227.477 480.473 225.938C480.473 224.395 479.453 222.973 477.191 222.973H472.949ZM484.742 230.852V214.949H486.891V230.852H484.742ZM506.371 223.668H492.168C492.43 226.836 494.867 229.281 498.207 229.281C500.707 229.281 502.77 227.855 503.758 225.676H505.992C504.715 229.105 501.813 231.227 498.207 231.227C493.535 231.227 489.93 227.68 489.93 222.914C489.93 218.988 492.805 214.57 498.207 214.57C504.223 214.57 506.398 219.57 506.371 223.668ZM492.168 221.723H504.047C503.438 218.496 500.969 216.52 498.207 216.52C495.16 216.52 492.691 218.699 492.168 221.723ZM516.207 236.43V214.949H518.242V217.68H518.301C520.277 214.918 523.062 214.57 524.516 214.57C530.094 214.57 532.969 218.93 532.969 222.973C532.969 227.711 529.336 231.227 524.457 231.227C520.594 231.227 518.969 228.816 518.418 227.883H518.359V236.43H516.207ZM524.516 216.52C520.828 216.52 518.242 219.426 518.242 223C518.242 226.52 520.828 229.281 524.457 229.281C527.973 229.281 530.816 226.547 530.816 222.941C530.816 219.336 528.059 216.52 524.516 216.52ZM551.836 223.668H537.633C537.895 226.836 540.336 229.281 543.676 229.281C546.176 229.281 548.234 227.855 549.223 225.676H551.461C550.18 229.105 547.277 231.227 543.676 231.227C539 231.227 535.398 227.68 535.398 222.914C535.398 218.988 538.273 214.57 543.676 214.57C549.688 214.57 551.867 219.57 551.836 223.668ZM537.633 221.723H549.516C548.902 218.496 546.434 216.52 543.676 216.52C540.625 216.52 538.156 218.699 537.633 221.723ZM554.898 214.949H557.047V228.902H563.902V214.949H566.051V228.902H572.906V214.949H575.055V230.852H554.898V214.949ZM594.551 223.668H580.348C580.609 226.836 583.051 229.281 586.391 229.281C588.891 229.281 590.949 227.855 591.938 225.676H594.176C592.895 229.105 589.992 231.227 586.391 231.227C581.715 231.227 578.113 227.68 578.113 222.914C578.113 218.988 580.988 214.57 586.391 214.57C592.402 214.57 594.582 219.57 594.551 223.668ZM580.348 221.723H592.23C591.617 218.496 589.148 216.52 586.391 216.52C583.34 216.52 580.871 218.699 580.348 221.723ZM597.613 214.949H599.762V221.723H608.648V214.949H610.801V230.852H608.648V223.668H599.762V230.852H597.613V214.949ZM614.461 214.949H616.609V227.797L626.078 214.949H628.227V230.852H626.078V218L616.609 230.852H614.461V214.949ZM643.32 214.949V230.852H641.172V216.895H636.902C636.437 216.895 633.184 216.926 633.184 220.297C633.184 222.07 634.227 223.496 636.902 223.496H639.078L633.793 230.852H631.324L635.652 225.18C632.922 224.977 631.035 222.941 631.035 220.18C631.035 217.477 633.098 214.949 636.902 214.949H643.32ZM653.746 214.949H659.438C663.156 214.949 664.141 217.273 664.141 219.191C664.141 220.703 663.301 221.926 662.023 222.477C663.648 222.914 664.723 224.395 664.723 226.258C664.723 228.727 662.98 230.852 659.609 230.852H653.746V214.949ZM655.895 216.895V221.723H659.293C660.977 221.723 661.992 220.734 661.992 219.191C661.992 216.867 659.785 216.895 659.293 216.895H655.895ZM655.895 223.668V228.902H659.379C661.906 228.902 662.574 227.391 662.574 226.285C662.574 225.617 662.371 223.668 659.379 223.668H655.895ZM683.875 214.949V230.852H681.844V227.883H681.785C680.887 229.25 679.055 231.227 675.598 231.227C670.836 231.227 667.09 227.738 667.09 222.797C667.09 219.02 669.848 214.57 675.539 214.57C676.906 214.57 679.871 214.773 681.785 217.711H681.844V214.949H683.875ZM675.539 216.52C672.086 216.52 669.238 219.281 669.238 222.973C669.238 226.605 672.199 229.281 675.598 229.281C679.086 229.281 681.844 226.488 681.844 223C681.844 219.395 679.145 216.52 675.539 216.52ZM687.527 214.949H689.676V228.902H696.527V214.949H698.68V228.902H705.535V214.949H707.684V230.852H687.527V214.949ZM727.18 223.668H712.977C713.238 226.836 715.68 229.281 719.02 229.281C721.516 229.281 723.578 227.855 724.566 225.676H726.805C725.523 229.105 722.621 231.227 719.02 231.227C714.34 231.227 710.742 227.68 710.742 222.914C710.742 218.988 713.617 214.57 719.02 214.57C725.031 214.57 727.211 219.57 727.18 223.668ZM712.977 221.723H724.855C724.246 218.496 721.777 216.52 719.02 216.52C715.969 216.52 713.5 218.699 712.977 221.723ZM730.242 214.949H738.52V216.895H732.391V230.852H730.242V214.949ZM748.406 214.57C753.109 214.57 756.711 218.176 756.711 222.914C756.711 227.652 753.078 231.227 748.406 231.227C743.727 231.227 740.098 227.652 740.098 222.914C740.098 218.176 743.699 214.57 748.406 214.57ZM748.406 216.52C744.832 216.52 742.246 219.309 742.246 222.914C742.246 226.52 744.832 229.281 748.406 229.281C751.977 229.281 754.562 226.52 754.562 222.914C754.562 219.309 751.977 216.52 748.406 216.52ZM766.516 214.949H768.668V227.797L778.133 214.949H780.285V230.852H778.133V218L768.668 230.852H766.516V214.949ZM783.934 214.949H786.082V221.723H794.973V214.949H797.117V230.852H794.973V223.668H786.082V230.852H783.934V214.949ZM799.301 214.949H809.637V216.895H805.547V230.852H803.395V216.895H799.301V214.949ZM827.645 223.668H813.441C813.703 226.836 816.141 229.281 819.484 229.281C821.98 229.281 824.039 227.855 825.027 225.676H827.266C825.988 229.105 823.082 231.227 819.484 231.227C814.805 231.227 811.207 227.68 811.207 222.914C811.207 218.988 814.082 214.57 819.484 214.57C825.492 214.57 827.672 219.57 827.645 223.668ZM813.441 221.723H825.32C824.711 218.496 822.242 216.52 819.484 216.52C816.434 216.52 813.965 218.699 813.441 221.723ZM830.707 236.43V214.949H832.738V217.68H832.797C834.77 214.918 837.559 214.57 839.012 214.57C844.586 214.57 847.461 218.93 847.461 222.973C847.461 227.711 843.832 231.227 838.953 231.227C835.09 231.227 833.465 228.816 832.91 227.883H832.852V236.43H830.707ZM839.012 216.52C835.32 216.52 832.738 219.426 832.738 223C832.738 226.52 835.32 229.281 838.953 229.281C842.469 229.281 845.316 226.547 845.316 222.941C845.316 219.336 842.555 216.52 839.012 216.52ZM850.504 214.949H852.652V221.023H856.922C861.219 221.023 862.324 224.105 862.324 225.938C862.324 227.77 861.219 230.852 856.922 230.852H850.504V214.949ZM852.652 222.973V228.902H856.895C859.156 228.902 860.176 227.477 860.176 225.938C860.176 224.395 859.156 222.973 856.895 222.973H852.652ZM880.855 223.668H866.652C866.91 226.836 869.352 229.281 872.691 229.281C875.188 229.281 877.254 227.855 878.238 225.676H880.477C879.199 229.105 876.293 231.227 872.691 231.227C868.016 231.227 864.414 227.68 864.414 222.914C864.414 218.988 867.289 214.57 872.691 214.57C878.703 214.57 880.883 219.57 880.855 223.668ZM866.652 221.723H878.531C877.922 218.496 875.453 216.52 872.691 216.52C869.645 216.52 867.176 218.699 866.652 221.723ZM883.914 236.43V214.949H885.945V217.68H886.004C887.98 214.918 890.77 214.57 892.219 214.57C897.797 214.57 900.672 218.93 900.672 222.973C900.672 227.711 897.043 231.227 892.164 231.227C888.301 231.227 886.676 228.816 886.121 227.883H886.062V236.43H883.914ZM892.219 216.52C888.531 216.52 885.945 219.426 885.945 223C885.945 226.52 888.531 229.281 892.164 229.281C895.676 229.281 898.523 226.547 898.523 222.941C898.523 219.336 895.766 216.52 892.219 216.52ZM919.891 214.949V230.852H917.855V227.883H917.801C916.898 229.25 915.066 231.227 911.613 231.227C906.848 231.227 903.102 227.738 903.102 222.797C903.102 219.02 905.859 214.57 911.555 214.57C912.922 214.57 915.883 214.773 917.801 217.711H917.855V214.949H919.891ZM911.555 216.52C908.098 216.52 905.25 219.281 905.25 222.973C905.25 226.605 908.215 229.281 911.613 229.281C915.098 229.281 917.855 226.488 917.855 223C917.855 219.395 915.156 216.52 911.555 216.52Z" fill="#292929"/>
<path d="M154.824 61.4336L151.922 70.8359H161.621L158.719 61.4336C158.555 61.0625 158.367 60.793 158.164 60.6289C157.996 60.4648 157.793 60.3828 157.543 60.3828H156C155.754 60.3828 155.527 60.4648 155.32 60.6289C155.156 60.793 154.992 61.0625 154.824 61.4336ZM151.305 90.7461C151.305 91.5312 151.117 92.1094 150.746 92.4805C150.418 92.8086 149.863 92.9727 149.078 92.9727H139.996C139.215 92.9727 138.637 92.8086 138.266 92.4805C137.938 92.1094 137.773 91.5312 137.773 90.7461V74.4219C137.773 73.1836 137.957 71.7617 138.328 70.1523C138.742 68.5469 139.359 66.668 140.184 64.5273L145.559 50.4883C145.805 49.7852 146.176 49.2695 146.672 48.9414C147.207 48.6094 147.887 48.4453 148.707 48.4453H165.328C166.113 48.4453 166.75 48.6094 167.246 48.9414C167.781 49.2695 168.172 49.7852 168.418 50.4883L173.793 64.5273C174.617 66.668 175.215 68.5469 175.586 70.1523C176 71.7617 176.203 73.1836 176.203 74.4219V90.7461C176.203 91.5312 176.02 92.1094 175.648 92.4805C175.32 92.8086 174.762 92.9727 173.98 92.9727H164.648C163.828 92.9727 163.207 92.8086 162.797 92.4805C162.426 92.1094 162.242 91.5312 162.242 90.7461V82.0898H151.305V90.7461ZM197.797 59.5781V67.4961H202.43C203.504 67.4961 204.223 67.2266 204.594 66.6914C204.965 66.1133 205.148 65.4141 205.148 64.5859V62.4844C205.148 61.6602 204.965 60.9805 204.594 60.4453C204.223 59.8672 203.504 59.5781 202.43 59.5781H197.797ZM195.574 92.9727H186.059C185.273 92.9727 184.699 92.8086 184.328 92.4805C183.996 92.1094 183.832 91.5312 183.832 90.7461V50.6719C183.832 49.8906 183.996 49.332 184.328 49.0039C184.699 48.6328 185.273 48.4453 186.059 48.4453H206.633C211.246 48.4453 214.418 49.4141 216.148 51.3516C217.918 53.25 218.805 55.7227 218.805 58.7734V61.6172C218.805 63.3516 218.535 64.8359 218 66.0703C217.508 67.2656 216.621 68.1328 215.344 68.668C217.57 68.918 219.359 69.8242 220.719 71.3906C222.121 72.957 222.82 75.0391 222.82 77.6367V90.7461C222.82 91.5312 222.637 92.1094 222.266 92.4805C221.934 92.8086 221.379 92.9727 220.598 92.9727H211.02C210.238 92.9727 209.66 92.8086 209.289 92.4805C208.961 92.1094 208.797 91.5312 208.797 90.7461V81.2852C208.797 80.3789 208.609 79.7187 208.238 79.3086C207.91 78.8516 207.313 78.625 206.445 78.625H197.797V90.7461C197.797 91.5312 197.613 92.1094 197.242 92.4805C196.91 92.8086 196.355 92.9727 195.574 92.9727ZM248.887 92.9727H238.879C238.094 92.9727 237.52 92.8086 237.148 92.4805C236.82 92.1094 236.652 91.5312 236.652 90.7461V60.3828H227.57C226.789 60.3828 226.211 60.2187 225.844 59.8867C225.512 59.5156 225.348 58.9375 225.348 58.1562V50.6719C225.348 49.8906 225.512 49.332 225.844 49.0039C226.211 48.6328 226.789 48.4453 227.57 48.4453H260.195C260.977 48.4453 261.531 48.6328 261.863 49.0039C262.234 49.332 262.418 49.8906 262.418 50.6719V58.1562C262.418 58.9375 262.234 59.5156 261.863 59.8867C261.531 60.2187 260.977 60.3828 260.195 60.3828H251.113V90.7461C251.113 91.5312 250.926 92.1094 250.559 92.4805C250.227 92.8086 249.672 92.9727 248.887 92.9727Z" fill="#292929"/>
<path d="M257.738 171.613H247.602C246.738 171.613 246.105 171.434 245.699 171.07C245.336 170.66 245.156 170.023 245.156 169.164V125.047C245.156 124.184 245.336 123.57 245.699 123.207C246.105 122.801 246.738 122.594 247.602 122.594H258.555C259.277 122.594 259.867 122.754 260.32 123.07C260.82 123.391 261.273 123.91 261.684 124.637L267.805 135.734C268.031 136.145 268.211 136.437 268.348 136.621C268.531 136.801 268.754 136.891 269.027 136.891H269.641C269.914 136.891 270.117 136.801 270.254 136.621C270.434 136.437 270.637 136.145 270.863 135.734L276.918 124.637C277.324 123.91 277.758 123.391 278.211 123.07C278.707 122.754 279.324 122.594 280.047 122.594H291.066C291.93 122.594 292.539 122.801 292.902 123.207C293.312 123.57 293.512 124.184 293.512 125.047V169.164C293.512 170.023 293.312 170.66 292.902 171.07C292.539 171.434 291.93 171.613 291.066 171.613H280.59C279.73 171.613 279.094 171.434 278.688 171.07C278.324 170.66 278.141 170.023 278.141 169.164V145.199L274.129 152.617C273.719 153.391 273.223 153.957 272.633 154.32C272.09 154.641 271.387 154.797 270.523 154.797H267.805C266.941 154.797 266.219 154.641 265.625 154.32C265.082 153.957 264.605 153.391 264.199 152.617L260.184 145.199V169.164C260.184 170.023 259.984 170.66 259.574 171.07C259.211 171.434 258.602 171.613 257.738 171.613ZM336.883 171.613H305.324C304.465 171.613 303.828 171.434 303.422 171.07C303.059 170.66 302.875 170.023 302.875 169.164V125.047C302.875 124.184 303.059 123.57 303.422 123.207C303.828 122.801 304.465 122.594 305.324 122.594H336.883C337.746 122.594 338.359 122.801 338.719 123.207C339.129 123.57 339.332 124.184 339.332 125.047V133.012C339.332 133.875 339.129 134.508 338.719 134.918C338.359 135.281 337.746 135.461 336.883 135.461H318.109V140.703H331.375C332.238 140.703 332.848 140.91 333.211 141.316C333.621 141.68 333.824 142.293 333.824 143.156V150.441C333.824 151.305 333.621 151.938 333.211 152.348C332.848 152.711 332.238 152.891 331.375 152.891H318.109V158.746H336.883C337.746 158.746 338.359 158.949 338.719 159.359C339.129 159.723 339.332 160.336 339.332 161.199V169.164C339.332 170.023 339.129 170.66 338.719 171.07C338.359 171.434 337.746 171.613 336.883 171.613ZM375.945 171.613H349.828C348.965 171.613 348.332 171.434 347.922 171.07C347.559 170.66 347.379 170.023 347.379 169.164V125.047C347.379 124.184 347.559 123.57 347.922 123.207C348.332 122.801 348.965 122.594 349.828 122.594H371.527C375.969 122.594 379.258 123.457 381.387 125.184C383.52 126.863 384.586 129.473 384.586 133.012V136.281C384.586 138.188 384.246 139.75 383.562 140.977C382.93 142.156 381.934 143.043 380.574 143.633C383.473 143.906 385.629 144.902 387.035 146.629C388.438 148.352 389.145 150.871 389.145 154.184V160.449C389.145 164.262 388.055 167.074 385.879 168.891C383.746 170.707 380.434 171.613 375.945 171.613ZM362.684 134.168V141.523H368.465C369.328 141.523 369.961 141.297 370.371 140.84C370.824 140.387 371.051 139.707 371.051 138.797V136.891C371.051 135.984 370.824 135.305 370.371 134.852C369.961 134.395 369.328 134.168 368.465 134.168H362.684ZM362.684 152.008V160.039H371.527C372.387 160.039 373.023 159.812 373.43 159.359C373.887 158.906 374.109 158.223 374.109 157.316V154.66C374.109 153.754 373.887 153.098 373.43 152.688C373.023 152.234 372.387 152.008 371.527 152.008H362.684ZM430.676 171.613H399.113C398.254 171.613 397.617 171.434 397.211 171.07C396.848 170.66 396.664 170.023 396.664 169.164V125.047C396.664 124.184 396.848 123.57 397.211 123.207C397.617 122.801 398.254 122.594 399.113 122.594H430.676C431.535 122.594 432.148 122.801 432.512 123.207C432.922 123.57 433.125 124.184 433.125 125.047V133.012C433.125 133.875 432.922 134.508 432.512 134.918C432.148 135.281 431.535 135.461 430.676 135.461H411.902V140.703H425.164C426.027 140.703 426.641 140.91 427 141.316C427.41 141.68 427.613 142.293 427.613 143.156V150.441C427.613 151.305 427.41 151.938 427 152.348C426.641 152.711 426.027 152.891 425.164 152.891H411.902V158.746H430.676C431.535 158.746 432.148 158.949 432.512 159.359C432.922 159.723 433.125 160.336 433.125 161.199V169.164C433.125 170.023 432.922 170.66 432.512 171.07C432.148 171.434 431.535 171.613 430.676 171.613ZM478.242 171.613H443.617C442.758 171.613 442.121 171.434 441.715 171.07C441.352 170.66 441.168 170.023 441.168 169.164V125.047C441.168 124.184 441.352 123.57 441.715 123.207C442.121 122.801 442.758 122.594 443.617 122.594H454.16C455.023 122.594 455.637 122.801 455.996 123.207C456.406 123.57 456.609 124.184 456.609 125.047V158.746H465.93V147.719C465.93 146.855 466.109 146.242 466.473 145.879C466.883 145.469 467.516 145.266 468.379 145.266H478.242C479.102 145.266 479.715 145.469 480.078 145.879C480.484 146.242 480.688 146.855 480.688 147.719V169.164C480.688 170.023 480.484 170.66 480.078 171.07C479.715 171.434 479.102 171.613 478.242 171.613Z" fill="#292929"/>
<path d="M281.887 252.172L217.742 187.969L153.602 252.172L217.742 316.375L281.887 252.172Z" fill="#292929" stroke="#292929" stroke-width="3.82332"/>
<path d="M206.68 176.902L142.539 112.699L78.3947 176.902L142.539 241.105L206.68 176.902Z" fill="#292929" stroke="#292929" stroke-width="3.82332"/>
<path d="M279.066 404.047L214.922 339.844L150.778 404.047L214.922 468.25L279.066 404.047Z" fill="#292929" stroke="#292929" stroke-width="3.82332"/>
<path d="M131.488 101.629L67.3439 37.4297L3.20333 101.629L67.3439 165.832L131.488 101.629Z" fill="#292929" stroke="#292929" stroke-width="3.82332"/>
<path d="M203.859 328.777L139.719 264.574L75.5744 328.777L139.719 392.98L203.859 328.777Z" fill="#292929" stroke="#292929" stroke-width="3.82332"/>
<path d="M764.887 177.027V115.445L146.941 112.019L204.918 177.027H764.887Z" stroke="#292929" stroke-width="3.90822"/>
<path d="M348.766 100.781L348.77 39.1992L67.1719 37.5234L129.676 100.781H348.766Z" stroke="#292929" stroke-width="3.90822"/>
<path fill-rule="evenodd" clip-rule="evenodd" d="M957.727 258.727L895.957 332.48L226.207 328.059L295.465 258.727H957.727ZM955.871 185.297H957.824V252.188H284.559L283.984 251.613L221.062 188.637L217.73 185.297H955.871ZM953.914 248.277V189.207H227.16L286.176 248.277H953.914Z" fill="#292929"/>
</svg>
