<?xml version="1.0" encoding="UTF-8"?>
<svg xmlns="http://www.w3.org/2000/svg" xmlns:xlink="http://www.w3.org/1999/xlink" width="991px" height="500px" viewBox="0 0 990 500" version="1.1">
<g id="surface1">
<path style=" stroke:none;fill-rule:nonzero;fill:rgb(16.078431%,16.078431%,16.078431%);fill-opacity:1;" d="M 311.101562 209.335938 L 313.253906 209.335938 L 313.253906 230.851562 L 311.101562 230.851562 Z M 314.734375 219.832031 L 323.011719 209.335938 L 325.566406 209.335938 L 317.289062 219.597656 L 325.917969 230.851562 L 323.242188 230.851562 Z M 335.894531 214.570312 C 340.601562 214.570312 344.199219 218.175781 344.199219 222.914062 C 344.199219 227.652344 340.574219 231.226562 335.894531 231.226562 C 331.21875 231.226562 327.589844 227.652344 327.589844 222.914062 C 327.589844 218.175781 331.191406 214.570312 335.894531 214.570312 Z M 335.894531 216.519531 C 332.324219 216.519531 329.738281 219.308594 329.738281 222.914062 C 329.738281 226.519531 332.324219 229.28125 335.894531 229.28125 C 339.46875 229.28125 342.054688 226.519531 342.054688 222.914062 C 342.054688 219.308594 339.46875 216.519531 335.894531 216.519531 Z M 347.230469 230.851562 L 347.230469 214.949219 L 350.542969 214.949219 L 355.855469 227.941406 L 361.171875 214.949219 L 364.480469 214.949219 L 364.480469 230.851562 L 362.335938 230.851562 L 362.335938 217.332031 L 356.785156 230.851562 L 354.925781 230.851562 L 349.378906 217.332031 L 349.378906 230.851562 Z M 368.132812 214.949219 L 381.320312 214.949219 L 381.320312 230.851562 L 379.171875 230.851562 L 379.171875 216.894531 L 370.285156 216.894531 L 370.285156 230.851562 L 368.132812 230.851562 Z M 392.417969 214.949219 L 399.183594 230.851562 L 396.863281 230.851562 L 391.285156 217.679688 L 385.710938 230.851562 L 383.386719 230.851562 L 390.183594 214.949219 Z M 417.066406 223.667969 L 402.863281 223.667969 C 403.121094 226.835938 405.5625 229.28125 408.902344 229.28125 C 411.398438 229.28125 413.460938 227.855469 414.449219 225.675781 L 416.6875 225.675781 C 415.410156 229.105469 412.503906 231.226562 408.902344 231.226562 C 404.226562 231.226562 400.625 227.679688 400.625 222.914062 C 400.625 218.988281 403.5 214.570312 408.902344 214.570312 C 414.914062 214.570312 417.09375 219.570312 417.066406 223.667969 Z M 402.863281 221.722656 L 414.738281 221.722656 C 414.132812 218.496094 411.664062 216.519531 408.902344 216.519531 C 405.851562 216.519531 403.386719 218.699219 402.863281 221.722656 Z M 422.273438 230.851562 L 420.125 230.851562 L 420.125 214.949219 L 422.273438 214.949219 Z M 429.910156 230.851562 L 423.523438 222.796875 L 429.738281 214.949219 L 432.265625 214.949219 L 426.164062 222.621094 L 432.671875 230.851562 Z M 447.863281 226.199219 L 450.246094 226.199219 C 449.167969 228.554688 446.875 231.226562 442.519531 231.226562 C 437.085938 231.226562 434.039062 227.042969 434.039062 222.882812 C 434.039062 219.074219 436.972656 214.570312 442.519531 214.570312 C 446.207031 214.570312 449.023438 216.632812 450.273438 219.773438 L 447.863281 219.773438 C 446.265625 216.632812 443.242188 216.519531 442.519531 216.519531 C 438.828125 216.519531 436.1875 219.335938 436.1875 222.855469 C 436.1875 226.488281 439.0625 229.28125 442.519531 229.28125 C 444.695312 229.28125 446.730469 228.203125 447.863281 226.199219 Z M 453.453125 214.949219 L 455.601562 214.949219 L 455.601562 221.722656 L 464.488281 221.722656 L 464.488281 214.949219 L 466.640625 214.949219 L 466.640625 230.851562 L 464.488281 230.851562 L 464.488281 223.667969 L 455.601562 223.667969 L 455.601562 230.851562 L 453.453125 230.851562 Z M 470.300781 214.949219 L 472.449219 214.949219 L 472.449219 221.023438 L 476.71875 221.023438 C 481.019531 221.023438 482.121094 224.105469 482.121094 225.9375 C 482.121094 227.769531 481.019531 230.851562 476.71875 230.851562 L 470.300781 230.851562 Z M 472.449219 222.972656 L 472.449219 228.902344 L 476.691406 228.902344 C 478.953125 228.902344 479.972656 227.476562 479.972656 225.9375 C 479.972656 224.394531 478.953125 222.972656 476.691406 222.972656 Z M 484.242188 230.851562 L 484.242188 214.949219 L 486.390625 214.949219 L 486.390625 230.851562 Z M 505.871094 223.667969 L 491.667969 223.667969 C 491.929688 226.835938 494.367188 229.28125 497.707031 229.28125 C 500.207031 229.28125 502.269531 227.855469 503.257812 225.675781 L 505.492188 225.675781 C 504.214844 229.105469 501.3125 231.226562 497.707031 231.226562 C 493.035156 231.226562 489.429688 227.679688 489.429688 222.914062 C 489.429688 218.988281 492.304688 214.570312 497.707031 214.570312 C 503.722656 214.570312 505.898438 219.570312 505.871094 223.667969 Z M 491.667969 221.722656 L 503.546875 221.722656 C 502.9375 218.496094 500.46875 216.519531 497.707031 216.519531 C 494.660156 216.519531 492.191406 218.699219 491.667969 221.722656 Z M 515.707031 236.429688 L 515.707031 214.949219 L 517.742188 214.949219 L 517.742188 217.679688 L 517.800781 217.679688 C 519.777344 214.917969 522.5625 214.570312 524.015625 214.570312 C 529.59375 214.570312 532.46875 218.929688 532.46875 222.972656 C 532.46875 227.710938 528.835938 231.226562 523.957031 231.226562 C 520.09375 231.226562 518.46875 228.816406 517.917969 227.882812 L 517.859375 227.882812 L 517.859375 236.429688 Z M 524.015625 216.519531 C 520.328125 216.519531 517.742188 219.425781 517.742188 223 C 517.742188 226.519531 520.328125 229.28125 523.957031 229.28125 C 527.472656 229.28125 530.316406 226.546875 530.316406 222.941406 C 530.316406 219.335938 527.558594 216.519531 524.015625 216.519531 Z M 551.335938 223.667969 L 537.132812 223.667969 C 537.394531 226.835938 539.835938 229.28125 543.175781 229.28125 C 545.675781 229.28125 547.734375 227.855469 548.722656 225.675781 L 550.960938 225.675781 C 549.679688 229.105469 546.777344 231.226562 543.175781 231.226562 C 538.5 231.226562 534.898438 227.679688 534.898438 222.914062 C 534.898438 218.988281 537.773438 214.570312 543.175781 214.570312 C 549.1875 214.570312 551.367188 219.570312 551.335938 223.667969 Z M 537.132812 221.722656 L 549.015625 221.722656 C 548.402344 218.496094 545.933594 216.519531 543.175781 216.519531 C 540.125 216.519531 537.65625 218.699219 537.132812 221.722656 Z M 554.398438 214.949219 L 556.546875 214.949219 L 556.546875 228.902344 L 563.402344 228.902344 L 563.402344 214.949219 L 565.550781 214.949219 L 565.550781 228.902344 L 572.40625 228.902344 L 572.40625 214.949219 L 574.554688 214.949219 L 574.554688 230.851562 L 554.398438 230.851562 Z M 594.050781 223.667969 L 579.847656 223.667969 C 580.109375 226.835938 582.550781 229.28125 585.890625 229.28125 C 588.390625 229.28125 590.449219 227.855469 591.4375 225.675781 L 593.675781 225.675781 C 592.394531 229.105469 589.492188 231.226562 585.890625 231.226562 C 581.214844 231.226562 577.613281 227.679688 577.613281 222.914062 C 577.613281 218.988281 580.488281 214.570312 585.890625 214.570312 C 591.902344 214.570312 594.082031 219.570312 594.050781 223.667969 Z M 579.847656 221.722656 L 591.730469 221.722656 C 591.117188 218.496094 588.648438 216.519531 585.890625 216.519531 C 582.839844 216.519531 580.371094 218.699219 579.847656 221.722656 Z M 597.113281 214.949219 L 599.261719 214.949219 L 599.261719 221.722656 L 608.148438 221.722656 L 608.148438 214.949219 L 610.300781 214.949219 L 610.300781 230.851562 L 608.148438 230.851562 L 608.148438 223.667969 L 599.261719 223.667969 L 599.261719 230.851562 L 597.113281 230.851562 Z M 613.960938 214.949219 L 616.109375 214.949219 L 616.109375 227.796875 L 625.578125 214.949219 L 627.726562 214.949219 L 627.726562 230.851562 L 625.578125 230.851562 L 625.578125 218 L 616.109375 230.851562 L 613.960938 230.851562 Z M 642.820312 214.949219 L 642.820312 230.851562 L 640.671875 230.851562 L 640.671875 216.894531 L 636.402344 216.894531 C 635.9375 216.894531 632.683594 216.925781 632.683594 220.296875 C 632.683594 222.070312 633.726562 223.496094 636.402344 223.496094 L 638.578125 223.496094 L 633.292969 230.851562 L 630.824219 230.851562 L 635.152344 225.179688 C 632.421875 224.976562 630.535156 222.941406 630.535156 220.179688 C 630.535156 217.476562 632.597656 214.949219 636.402344 214.949219 Z M 653.246094 214.949219 L 658.9375 214.949219 C 662.65625 214.949219 663.640625 217.273438 663.640625 219.191406 C 663.640625 220.703125 662.800781 221.925781 661.523438 222.476562 C 663.148438 222.914062 664.222656 224.394531 664.222656 226.257812 C 664.222656 228.726562 662.480469 230.851562 659.109375 230.851562 L 653.246094 230.851562 Z M 655.394531 216.894531 L 655.394531 221.722656 L 658.792969 221.722656 C 660.476562 221.722656 661.492188 220.734375 661.492188 219.191406 C 661.492188 216.867188 659.285156 216.894531 658.792969 216.894531 Z M 655.394531 223.667969 L 655.394531 228.902344 L 658.878906 228.902344 C 661.40625 228.902344 662.074219 227.390625 662.074219 226.285156 C 662.074219 225.617188 661.871094 223.667969 658.878906 223.667969 Z M 683.375 214.949219 L 683.375 230.851562 L 681.34375 230.851562 L 681.34375 227.882812 L 681.285156 227.882812 C 680.386719 229.25 678.554688 231.226562 675.097656 231.226562 C 670.335938 231.226562 666.589844 227.738281 666.589844 222.796875 C 666.589844 219.019531 669.347656 214.570312 675.039062 214.570312 C 676.40625 214.570312 679.371094 214.773438 681.285156 217.710938 L 681.34375 217.710938 L 681.34375 214.949219 Z M 675.039062 216.519531 C 671.585938 216.519531 668.738281 219.28125 668.738281 222.972656 C 668.738281 226.605469 671.699219 229.28125 675.097656 229.28125 C 678.585938 229.28125 681.34375 226.488281 681.34375 223 C 681.34375 219.394531 678.644531 216.519531 675.039062 216.519531 Z M 687.027344 214.949219 L 689.175781 214.949219 L 689.175781 228.902344 L 696.027344 228.902344 L 696.027344 214.949219 L 698.179688 214.949219 L 698.179688 228.902344 L 705.035156 228.902344 L 705.035156 214.949219 L 707.183594 214.949219 L 707.183594 230.851562 L 687.027344 230.851562 Z M 726.679688 223.667969 L 712.476562 223.667969 C 712.738281 226.835938 715.179688 229.28125 718.519531 229.28125 C 721.015625 229.28125 723.078125 227.855469 724.066406 225.675781 L 726.304688 225.675781 C 725.023438 229.105469 722.121094 231.226562 718.519531 231.226562 C 713.839844 231.226562 710.242188 227.679688 710.242188 222.914062 C 710.242188 218.988281 713.117188 214.570312 718.519531 214.570312 C 724.53125 214.570312 726.710938 219.570312 726.679688 223.667969 Z M 712.476562 221.722656 L 724.355469 221.722656 C 723.746094 218.496094 721.277344 216.519531 718.519531 216.519531 C 715.46875 216.519531 713 218.699219 712.476562 221.722656 Z M 729.742188 214.949219 L 738.019531 214.949219 L 738.019531 216.894531 L 731.890625 216.894531 L 731.890625 230.851562 L 729.742188 230.851562 Z M 747.90625 214.570312 C 752.609375 214.570312 756.210938 218.175781 756.210938 222.914062 C 756.210938 227.652344 752.578125 231.226562 747.90625 231.226562 C 743.226562 231.226562 739.597656 227.652344 739.597656 222.914062 C 739.597656 218.175781 743.199219 214.570312 747.90625 214.570312 Z M 747.90625 216.519531 C 744.332031 216.519531 741.746094 219.308594 741.746094 222.914062 C 741.746094 226.519531 744.332031 229.28125 747.90625 229.28125 C 751.476562 229.28125 754.0625 226.519531 754.0625 222.914062 C 754.0625 219.308594 751.476562 216.519531 747.90625 216.519531 Z M 766.015625 214.949219 L 768.167969 214.949219 L 768.167969 227.796875 L 777.632812 214.949219 L 779.785156 214.949219 L 779.785156 230.851562 L 777.632812 230.851562 L 777.632812 218 L 768.167969 230.851562 L 766.015625 230.851562 Z M 783.433594 214.949219 L 785.582031 214.949219 L 785.582031 221.722656 L 794.472656 221.722656 L 794.472656 214.949219 L 796.617188 214.949219 L 796.617188 230.851562 L 794.472656 230.851562 L 794.472656 223.667969 L 785.582031 223.667969 L 785.582031 230.851562 L 783.433594 230.851562 Z M 798.800781 214.949219 L 809.136719 214.949219 L 809.136719 216.894531 L 805.046875 216.894531 L 805.046875 230.851562 L 802.894531 230.851562 L 802.894531 216.894531 L 798.800781 216.894531 Z M 827.144531 223.667969 L 812.941406 223.667969 C 813.203125 226.835938 815.640625 229.28125 818.984375 229.28125 C 821.480469 229.28125 823.539062 227.855469 824.527344 225.675781 L 826.765625 225.675781 C 825.488281 229.105469 822.582031 231.226562 818.984375 231.226562 C 814.304688 231.226562 810.707031 227.679688 810.707031 222.914062 C 810.707031 218.988281 813.582031 214.570312 818.984375 214.570312 C 824.992188 214.570312 827.171875 219.570312 827.144531 223.667969 Z M 812.941406 221.722656 L 824.820312 221.722656 C 824.210938 218.496094 821.742188 216.519531 818.984375 216.519531 C 815.933594 216.519531 813.464844 218.699219 812.941406 221.722656 Z M 830.207031 236.429688 L 830.207031 214.949219 L 832.238281 214.949219 L 832.238281 217.679688 L 832.296875 217.679688 C 834.269531 214.917969 837.058594 214.570312 838.511719 214.570312 C 844.085938 214.570312 846.960938 218.929688 846.960938 222.972656 C 846.960938 227.710938 843.332031 231.226562 838.453125 231.226562 C 834.589844 231.226562 832.964844 228.816406 832.410156 227.882812 L 832.351562 227.882812 L 832.351562 236.429688 Z M 838.511719 216.519531 C 834.820312 216.519531 832.238281 219.425781 832.238281 223 C 832.238281 226.519531 834.820312 229.28125 838.453125 229.28125 C 841.96875 229.28125 844.816406 226.546875 844.816406 222.941406 C 844.816406 219.335938 842.054688 216.519531 838.511719 216.519531 Z M 850.003906 214.949219 L 852.152344 214.949219 L 852.152344 221.023438 L 856.421875 221.023438 C 860.71875 221.023438 861.824219 224.105469 861.824219 225.9375 C 861.824219 227.769531 860.71875 230.851562 856.421875 230.851562 L 850.003906 230.851562 Z M 852.152344 222.972656 L 852.152344 228.902344 L 856.394531 228.902344 C 858.65625 228.902344 859.675781 227.476562 859.675781 225.9375 C 859.675781 224.394531 858.65625 222.972656 856.394531 222.972656 Z M 880.355469 223.667969 L 866.152344 223.667969 C 866.410156 226.835938 868.851562 229.28125 872.191406 229.28125 C 874.6875 229.28125 876.753906 227.855469 877.738281 225.675781 L 879.976562 225.675781 C 878.699219 229.105469 875.792969 231.226562 872.191406 231.226562 C 867.515625 231.226562 863.914062 227.679688 863.914062 222.914062 C 863.914062 218.988281 866.789062 214.570312 872.191406 214.570312 C 878.203125 214.570312 880.382812 219.570312 880.355469 223.667969 Z M 866.152344 221.722656 L 878.03125 221.722656 C 877.421875 218.496094 874.953125 216.519531 872.191406 216.519531 C 869.144531 216.519531 866.675781 218.699219 866.152344 221.722656 Z M 883.414062 236.429688 L 883.414062 214.949219 L 885.445312 214.949219 L 885.445312 217.679688 L 885.503906 217.679688 C 887.480469 214.917969 890.269531 214.570312 891.71875 214.570312 C 897.296875 214.570312 900.171875 218.929688 900.171875 222.972656 C 900.171875 227.710938 896.542969 231.226562 891.664062 231.226562 C 887.800781 231.226562 886.175781 228.816406 885.621094 227.882812 L 885.5625 227.882812 L 885.5625 236.429688 Z M 891.71875 216.519531 C 888.03125 216.519531 885.445312 219.425781 885.445312 223 C 885.445312 226.519531 888.03125 229.28125 891.664062 229.28125 C 895.175781 229.28125 898.023438 226.546875 898.023438 222.941406 C 898.023438 219.335938 895.265625 216.519531 891.71875 216.519531 Z M 919.390625 214.949219 L 919.390625 230.851562 L 917.355469 230.851562 L 917.355469 227.882812 L 917.300781 227.882812 C 916.398438 229.25 914.566406 231.226562 911.113281 231.226562 C 906.347656 231.226562 902.601562 227.738281 902.601562 222.796875 C 902.601562 219.019531 905.359375 214.570312 911.054688 214.570312 C 912.421875 214.570312 915.382812 214.773438 917.300781 217.710938 L 917.355469 217.710938 L 917.355469 214.949219 Z M 911.054688 216.519531 C 907.597656 216.519531 904.75 219.28125 904.75 222.972656 C 904.75 226.605469 907.714844 229.28125 911.113281 229.28125 C 914.597656 229.28125 917.355469 226.488281 917.355469 223 C 917.355469 219.394531 914.65625 216.519531 911.054688 216.519531 Z M 911.054688 216.519531 "/>
<path style=" stroke:none;fill-rule:nonzero;fill:rgb(16.078431%,16.078431%,16.078431%);fill-opacity:1;" d="M 154.324219 61.433594 L 151.421875 70.835938 L 161.121094 70.835938 L 158.21875 61.433594 C 158.054688 61.0625 157.867188 60.792969 157.664062 60.628906 C 157.496094 60.464844 157.292969 60.382812 157.042969 60.382812 L 155.5 60.382812 C 155.253906 60.382812 155.027344 60.464844 154.820312 60.628906 C 154.65625 60.792969 154.492188 61.0625 154.324219 61.433594 Z M 150.804688 90.746094 C 150.804688 91.53125 150.617188 92.109375 150.246094 92.480469 C 149.917969 92.808594 149.363281 92.972656 148.578125 92.972656 L 139.496094 92.972656 C 138.714844 92.972656 138.136719 92.808594 137.765625 92.480469 C 137.4375 92.109375 137.273438 91.53125 137.273438 90.746094 L 137.273438 74.421875 C 137.273438 73.183594 137.457031 71.761719 137.828125 70.152344 C 138.242188 68.546875 138.859375 66.667969 139.683594 64.527344 L 145.058594 50.488281 C 145.304688 49.785156 145.675781 49.269531 146.171875 48.941406 C 146.707031 48.609375 147.386719 48.445312 148.207031 48.445312 L 164.828125 48.445312 C 165.613281 48.445312 166.25 48.609375 166.746094 48.941406 C 167.28125 49.269531 167.671875 49.785156 167.917969 50.488281 L 173.292969 64.527344 C 174.117188 66.667969 174.714844 68.546875 175.085938 70.152344 C 175.5 71.761719 175.703125 73.183594 175.703125 74.421875 L 175.703125 90.746094 C 175.703125 91.53125 175.519531 92.109375 175.148438 92.480469 C 174.820312 92.808594 174.261719 92.972656 173.480469 92.972656 L 164.148438 92.972656 C 163.328125 92.972656 162.707031 92.808594 162.296875 92.480469 C 161.925781 92.109375 161.742188 91.53125 161.742188 90.746094 L 161.742188 82.089844 L 150.804688 82.089844 Z M 197.296875 59.578125 L 197.296875 67.496094 L 201.929688 67.496094 C 203.003906 67.496094 203.722656 67.226562 204.09375 66.691406 C 204.464844 66.113281 204.648438 65.414062 204.648438 64.585938 L 204.648438 62.484375 C 204.648438 61.660156 204.464844 60.980469 204.09375 60.445312 C 203.722656 59.867188 203.003906 59.578125 201.929688 59.578125 Z M 195.074219 92.972656 L 185.558594 92.972656 C 184.773438 92.972656 184.199219 92.808594 183.828125 92.480469 C 183.496094 92.109375 183.332031 91.53125 183.332031 90.746094 L 183.332031 50.671875 C 183.332031 49.890625 183.496094 49.332031 183.828125 49.003906 C 184.199219 48.632812 184.773438 48.445312 185.558594 48.445312 L 206.132812 48.445312 C 210.746094 48.445312 213.917969 49.414062 215.648438 51.351562 C 217.417969 53.25 218.304688 55.722656 218.304688 58.773438 L 218.304688 61.617188 C 218.304688 63.351562 218.035156 64.835938 217.5 66.070312 C 217.007812 67.265625 216.121094 68.132812 214.84375 68.667969 C 217.070312 68.917969 218.859375 69.824219 220.21875 71.390625 C 221.621094 72.957031 222.320312 75.039062 222.320312 77.636719 L 222.320312 90.746094 C 222.320312 91.53125 222.136719 92.109375 221.765625 92.480469 C 221.433594 92.808594 220.878906 92.972656 220.097656 92.972656 L 210.519531 92.972656 C 209.738281 92.972656 209.160156 92.808594 208.789062 92.480469 C 208.460938 92.109375 208.296875 91.53125 208.296875 90.746094 L 208.296875 81.285156 C 208.296875 80.378906 208.109375 79.71875 207.738281 79.308594 C 207.410156 78.851562 206.8125 78.625 205.945312 78.625 L 197.296875 78.625 L 197.296875 90.746094 C 197.296875 91.53125 197.113281 92.109375 196.742188 92.480469 C 196.410156 92.808594 195.855469 92.972656 195.074219 92.972656 Z M 248.386719 92.972656 L 238.378906 92.972656 C 237.59375 92.972656 237.019531 92.808594 236.648438 92.480469 C 236.320312 92.109375 236.152344 91.53125 236.152344 90.746094 L 236.152344 60.382812 L 227.070312 60.382812 C 226.289062 60.382812 225.710938 60.21875 225.34375 59.886719 C 225.011719 59.515625 224.847656 58.9375 224.847656 58.15625 L 224.847656 50.671875 C 224.847656 49.890625 225.011719 49.332031 225.34375 49.003906 C 225.710938 48.632812 226.289062 48.445312 227.070312 48.445312 L 259.695312 48.445312 C 260.476562 48.445312 261.03125 48.632812 261.363281 49.003906 C 261.734375 49.332031 261.917969 49.890625 261.917969 50.671875 L 261.917969 58.15625 C 261.917969 58.9375 261.734375 59.515625 261.363281 59.886719 C 261.03125 60.21875 260.476562 60.382812 259.695312 60.382812 L 250.613281 60.382812 L 250.613281 90.746094 C 250.613281 91.53125 250.425781 92.109375 250.058594 92.480469 C 249.726562 92.808594 249.171875 92.972656 248.386719 92.972656 Z M 248.386719 92.972656 "/>
<path style=" stroke:none;fill-rule:nonzero;fill:rgb(16.078431%,16.078431%,16.078431%);fill-opacity:1;" d="M 257.238281 171.613281 L 247.101562 171.613281 C 246.238281 171.613281 245.605469 171.433594 245.199219 171.070312 C 244.835938 170.660156 244.65625 170.023438 244.65625 169.164062 L 244.65625 125.046875 C 244.65625 124.183594 244.835938 123.570312 245.199219 123.207031 C 245.605469 122.800781 246.238281 122.59375 247.101562 122.59375 L 258.054688 122.59375 C 258.777344 122.59375 259.367188 122.753906 259.820312 123.070312 C 260.320312 123.390625 260.773438 123.910156 261.183594 124.636719 L 267.304688 135.734375 C 267.53125 136.144531 267.710938 136.4375 267.847656 136.621094 C 268.03125 136.800781 268.253906 136.890625 268.527344 136.890625 L 269.140625 136.890625 C 269.414062 136.890625 269.617188 136.800781 269.753906 136.621094 C 269.933594 136.4375 270.136719 136.144531 270.363281 135.734375 L 276.417969 124.636719 C 276.824219 123.910156 277.257812 123.390625 277.710938 123.070312 C 278.207031 122.753906 278.824219 122.59375 279.546875 122.59375 L 290.566406 122.59375 C 291.429688 122.59375 292.039062 122.800781 292.402344 123.207031 C 292.8125 123.570312 293.011719 124.183594 293.011719 125.046875 L 293.011719 169.164062 C 293.011719 170.023438 292.8125 170.660156 292.402344 171.070312 C 292.039062 171.433594 291.429688 171.613281 290.566406 171.613281 L 280.089844 171.613281 C 279.230469 171.613281 278.59375 171.433594 278.1875 171.070312 C 277.824219 170.660156 277.640625 170.023438 277.640625 169.164062 L 277.640625 145.199219 L 273.628906 152.617188 C 273.21875 153.390625 272.722656 153.957031 272.132812 154.320312 C 271.589844 154.640625 270.886719 154.796875 270.023438 154.796875 L 267.304688 154.796875 C 266.441406 154.796875 265.71875 154.640625 265.125 154.320312 C 264.582031 153.957031 264.105469 153.390625 263.699219 152.617188 L 259.683594 145.199219 L 259.683594 169.164062 C 259.683594 170.023438 259.484375 170.660156 259.074219 171.070312 C 258.710938 171.433594 258.101562 171.613281 257.238281 171.613281 Z M 336.382812 171.613281 L 304.824219 171.613281 C 303.964844 171.613281 303.328125 171.433594 302.921875 171.070312 C 302.558594 170.660156 302.375 170.023438 302.375 169.164062 L 302.375 125.046875 C 302.375 124.183594 302.558594 123.570312 302.921875 123.207031 C 303.328125 122.800781 303.964844 122.59375 304.824219 122.59375 L 336.382812 122.59375 C 337.246094 122.59375 337.859375 122.800781 338.21875 123.207031 C 338.628906 123.570312 338.832031 124.183594 338.832031 125.046875 L 338.832031 133.011719 C 338.832031 133.875 338.628906 134.507812 338.21875 134.917969 C 337.859375 135.28125 337.246094 135.460938 336.382812 135.460938 L 317.609375 135.460938 L 317.609375 140.703125 L 330.875 140.703125 C 331.738281 140.703125 332.347656 140.910156 332.710938 141.316406 C 333.121094 141.679688 333.324219 142.292969 333.324219 143.15625 L 333.324219 150.441406 C 333.324219 151.304688 333.121094 151.9375 332.710938 152.347656 C 332.347656 152.710938 331.738281 152.890625 330.875 152.890625 L 317.609375 152.890625 L 317.609375 158.746094 L 336.382812 158.746094 C 337.246094 158.746094 337.859375 158.949219 338.21875 159.359375 C 338.628906 159.722656 338.832031 160.335938 338.832031 161.199219 L 338.832031 169.164062 C 338.832031 170.023438 338.628906 170.660156 338.21875 171.070312 C 337.859375 171.433594 337.246094 171.613281 336.382812 171.613281 Z M 375.445312 171.613281 L 349.328125 171.613281 C 348.464844 171.613281 347.832031 171.433594 347.421875 171.070312 C 347.058594 170.660156 346.878906 170.023438 346.878906 169.164062 L 346.878906 125.046875 C 346.878906 124.183594 347.058594 123.570312 347.421875 123.207031 C 347.832031 122.800781 348.464844 122.59375 349.328125 122.59375 L 371.027344 122.59375 C 375.46875 122.59375 378.757812 123.457031 380.886719 125.183594 C 383.019531 126.863281 384.085938 129.472656 384.085938 133.011719 L 384.085938 136.28125 C 384.085938 138.1875 383.746094 139.75 383.0625 140.976562 C 382.429688 142.15625 381.433594 143.042969 380.074219 143.632812 C 382.972656 143.90625 385.128906 144.902344 386.535156 146.628906 C 387.9375 148.351562 388.644531 150.871094 388.644531 154.183594 L 388.644531 160.449219 C 388.644531 164.261719 387.554688 167.074219 385.378906 168.890625 C 383.246094 170.707031 379.933594 171.613281 375.445312 171.613281 Z M 362.183594 134.167969 L 362.183594 141.523438 L 367.964844 141.523438 C 368.828125 141.523438 369.460938 141.296875 369.871094 140.839844 C 370.324219 140.386719 370.550781 139.707031 370.550781 138.796875 L 370.550781 136.890625 C 370.550781 135.984375 370.324219 135.304688 369.871094 134.851562 C 369.460938 134.394531 368.828125 134.167969 367.964844 134.167969 Z M 362.183594 152.007812 L 362.183594 160.039062 L 371.027344 160.039062 C 371.886719 160.039062 372.523438 159.8125 372.929688 159.359375 C 373.386719 158.90625 373.609375 158.222656 373.609375 157.316406 L 373.609375 154.660156 C 373.609375 153.753906 373.386719 153.097656 372.929688 152.6875 C 372.523438 152.234375 371.886719 152.007812 371.027344 152.007812 Z M 430.175781 171.613281 L 398.613281 171.613281 C 397.753906 171.613281 397.117188 171.433594 396.710938 171.070312 C 396.347656 170.660156 396.164062 170.023438 396.164062 169.164062 L 396.164062 125.046875 C 396.164062 124.183594 396.347656 123.570312 396.710938 123.207031 C 397.117188 122.800781 397.753906 122.59375 398.613281 122.59375 L 430.175781 122.59375 C 431.035156 122.59375 431.648438 122.800781 432.011719 123.207031 C 432.421875 123.570312 432.625 124.183594 432.625 125.046875 L 432.625 133.011719 C 432.625 133.875 432.421875 134.507812 432.011719 134.917969 C 431.648438 135.28125 431.035156 135.460938 430.175781 135.460938 L 411.402344 135.460938 L 411.402344 140.703125 L 424.664062 140.703125 C 425.527344 140.703125 426.140625 140.910156 426.5 141.316406 C 426.910156 141.679688 427.113281 142.292969 427.113281 143.15625 L 427.113281 150.441406 C 427.113281 151.304688 426.910156 151.9375 426.5 152.347656 C 426.140625 152.710938 425.527344 152.890625 424.664062 152.890625 L 411.402344 152.890625 L 411.402344 158.746094 L 430.175781 158.746094 C 431.035156 158.746094 431.648438 158.949219 432.011719 159.359375 C 432.421875 159.722656 432.625 160.335938 432.625 161.199219 L 432.625 169.164062 C 432.625 170.023438 432.421875 170.660156 432.011719 171.070312 C 431.648438 171.433594 431.035156 171.613281 430.175781 171.613281 Z M 477.742188 171.613281 L 443.117188 171.613281 C 442.257812 171.613281 441.621094 171.433594 441.214844 171.070312 C 440.851562 170.660156 440.667969 170.023438 440.667969 169.164062 L 440.667969 125.046875 C 440.667969 124.183594 440.851562 123.570312 441.214844 123.207031 C 441.621094 122.800781 442.257812 122.59375 443.117188 122.59375 L 453.660156 122.59375 C 454.523438 122.59375 455.136719 122.800781 455.496094 123.207031 C 455.90625 123.570312 456.109375 124.183594 456.109375 125.046875 L 456.109375 158.746094 L 465.429688 158.746094 L 465.429688 147.71875 C 465.429688 146.855469 465.609375 146.242188 465.972656 145.878906 C 466.382812 145.46875 467.015625 145.265625 467.878906 145.265625 L 477.742188 145.265625 C 478.601562 145.265625 479.214844 145.46875 479.578125 145.878906 C 479.984375 146.242188 480.1875 146.855469 480.1875 147.71875 L 480.1875 169.164062 C 480.1875 170.023438 479.984375 170.660156 479.578125 171.070312 C 479.214844 171.433594 478.601562 171.613281 477.742188 171.613281 Z M 477.742188 171.613281 "/>
<path style="fill-rule:nonzero;fill:rgb(16.078431%,16.078431%,16.078431%);fill-opacity:1;stroke-width:16.4403;stroke-linecap:butt;stroke-linejoin:miter;stroke:rgb(16.078431%,16.078431%,16.078431%);stroke-opacity:1;stroke-miterlimit:4;" d="M -11.622051 -0.00468804 L 378.627303 -0.000418505 L 378.61969 390.237053 L -11.617782 390.244666 Z M -11.622051 -0.00468804 " transform="matrix(-0.164366,-0.16452,-0.164366,0.16452,279.475675,250.260586)"/>
<path style="fill-rule:nonzero;fill:rgb(16.078431%,16.078431%,16.078431%);fill-opacity:1;stroke-width:16.4403;stroke-linecap:butt;stroke-linejoin:miter;stroke:rgb(16.078431%,16.078431%,16.078431%);stroke-opacity:1;stroke-miterlimit:4;" d="M -11.622325 -0.00134876 L 378.615147 -0.00896198 L 378.619417 390.240392 L -11.629938 390.236123 Z M -11.622325 -0.00134876 " transform="matrix(-0.164366,-0.16452,-0.164366,0.16452,204.269148,174.990461)"/>
<path style="fill-rule:nonzero;fill:rgb(16.078431%,16.078431%,16.078431%);fill-opacity:1;stroke-width:16.4403;stroke-linecap:butt;stroke-linejoin:miter;stroke:rgb(16.078431%,16.078431%,16.078431%);stroke-opacity:1;stroke-miterlimit:4;" d="M -11.633159 -0.00342136 L 378.616196 0.000848171 L 378.620465 390.250203 L -11.628889 390.245933 Z M -11.633159 -0.00342136 " transform="matrix(-0.164366,-0.16452,-0.164366,0.16452,276.653745,402.13355)"/>
<path style="fill-rule:nonzero;fill:rgb(16.078431%,16.078431%,16.078431%);fill-opacity:1;stroke-width:16.4403;stroke-linecap:butt;stroke-linejoin:miter;stroke:rgb(16.078431%,16.078431%,16.078431%);stroke-opacity:1;stroke-miterlimit:4;" d="M -11.621488 -0.00791472 L 378.615995 0.00822648 L 378.620253 390.233826 L -11.617219 390.24144 Z M -11.621488 -0.00791472 " transform="matrix(-0.164366,-0.16452,-0.164366,0.16452,129.0768,99.718241)"/>
<path style="fill-rule:nonzero;fill:rgb(16.078431%,16.078431%,16.078431%);fill-opacity:1;stroke-width:16.4403;stroke-linecap:butt;stroke-linejoin:miter;stroke:rgb(16.078431%,16.078431%,16.078431%);stroke-opacity:1;stroke-miterlimit:4;" d="M -11.624947 0.00698898 L 378.612525 -0.000624243 L 378.616794 390.24873 L -11.63256 390.244461 Z M -11.624947 0.00698898 " transform="matrix(-0.164366,-0.16452,-0.164366,0.16452,201.449775,326.863658)"/>
<path style="fill:none;stroke-width:16.8054;stroke-linecap:butt;stroke-linejoin:miter;stroke:rgb(16.078431%,16.078431%,16.078431%);stroke-opacity:1;stroke-miterlimit:4;" d="M 3288.407106 760.863523 L 3288.407106 496.183953 L 629.993888 481.459945 L 879.410231 760.863523 Z M 3288.407106 760.863523 " transform="matrix(0.232449,0,0,0.232666,0,0)"/>
<path style="fill:none;stroke-width:16.8054;stroke-linecap:butt;stroke-linejoin:miter;stroke:rgb(16.078431%,16.078431%,16.078431%);stroke-opacity:1;stroke-miterlimit:4;" d="M 1498.245754 433.157812 L 1498.262559 168.478242 L 286.823753 161.275734 L 555.716821 433.157812 Z M 1498.245754 433.157812 " transform="matrix(0.232449,0,0,0.232666,0,0)"/>
<path style=" stroke:none;fill-rule:evenodd;fill:rgb(16.078431%,16.078431%,16.078431%);fill-opacity:1;" d="M 957.226562 258.726562 L 895.457031 332.480469 L 225.707031 328.058594 L 294.964844 258.726562 Z M 955.371094 185.296875 L 957.324219 185.296875 L 957.324219 252.1875 L 284.058594 252.1875 L 283.484375 251.613281 L 220.5625 188.636719 L 217.230469 185.296875 Z M 953.414062 248.277344 L 953.414062 189.207031 L 226.660156 189.207031 L 285.675781 248.277344 Z M 953.414062 248.277344 "/>
</g>
</svg>
