<svg width="80" height="81" viewBox="0 0 80 81" fill="none" xmlns="http://www.w3.org/2000/svg">
<path fill-rule="evenodd" clip-rule="evenodd" d="M80 40.1218C80 62.2132 62.0914 80.1218 40 80.1218C17.9086 80.1218 0 62.2132 0 40.1218C0 18.0304 17.9086 0.121826 40 0.121826C62.0914 0.121826 80 18.0304 80 40.1218ZM41.4334 29.6516C37.5428 31.2698 29.7671 34.6191 18.1063 39.6996C16.2128 40.4526 15.2209 41.1892 15.1306 41.9095C14.978 43.1268 16.5024 43.6062 18.5782 44.2589C18.8606 44.3477 19.1532 44.4397 19.4531 44.5372C21.4955 45.2011 24.2428 45.9777 25.671 46.0086C26.9665 46.0366 28.4124 45.5025 30.0088 44.4063C40.9039 37.0518 46.5279 33.3345 46.881 33.2544C47.1301 33.1978 47.4753 33.1268 47.7092 33.3346C47.9431 33.5425 47.9201 33.9362 47.8953 34.0418C47.7443 34.6856 41.7604 40.2488 38.6637 43.1278C37.6984 44.0253 37.0136 44.6619 36.8736 44.8073C36.56 45.133 36.2404 45.4411 35.9333 45.7372C34.0359 47.5662 32.613 48.9379 36.012 51.1778C37.6455 52.2542 38.9525 53.1443 40.2565 54.0323C41.6806 55.0021 43.101 55.9694 44.9387 57.174C45.4069 57.481 45.8541 57.7997 46.2896 58.1103C47.9469 59.2917 49.4358 60.3532 51.2753 60.1839C52.3441 60.0856 53.4482 59.0805 54.0089 56.083C55.334 48.999 57.9388 33.65 58.5407 27.3251C58.5935 26.7709 58.5271 26.0617 58.4738 25.7504C58.4206 25.4391 58.3092 24.9955 57.9046 24.6672C57.4253 24.2783 56.6854 24.1963 56.3545 24.2021C54.8501 24.2286 52.5418 25.0312 41.4334 29.6516Z" fill="white"/>
</svg>
