<svg width="80" height="81" viewBox="0 0 80 81" fill="none" xmlns="http://www.w3.org/2000/svg">
<path fill-rule="evenodd" clip-rule="evenodd" d="M5.62355 5.74538C0 11.3689 0 20.4198 0 38.5218V41.7218C0 59.8238 0 68.8747 5.62355 74.4983C11.2471 80.1218 20.298 80.1218 38.4 80.1218H41.6C59.702 80.1218 68.7528 80.1218 74.3765 74.4983C80 68.8747 80 59.8238 80 41.7218V38.5218C80 20.4198 80 11.3689 74.3765 5.74538C68.7528 0.121826 59.702 0.121826 41.6 0.121826H38.4C20.298 0.121826 11.2471 0.121826 5.62355 5.74538ZM13.5002 24.4553C13.9335 45.2553 24.3335 57.7553 42.5668 57.7553H43.6003V45.8553C50.3003 46.522 55.3667 51.422 57.4 57.7553H66.8668C64.2668 48.2887 57.4332 43.0553 53.1665 41.0553C57.4332 38.5887 63.4332 32.5887 64.8665 24.4553H56.2663C54.3997 31.0553 48.867 37.0553 43.6003 37.622V24.4553H35V47.522C29.6667 46.1887 22.9335 39.722 22.6335 24.4553H13.5002Z" fill="white"/>
</svg>
